# xmcd
#
# Track frame offsets:
#	150
#	12511
#	27136
#	42080
#	56030
#	65180
#	75636
#	87399
#	98781
#	111403
#	123575
#	135041
#	144609
#	162001
#	173510
#	192287
#	202929
#	216744
#
# Disc length: 3041 seconds
#
# Revision: 0
# Processed by: cddbd v1.4b42PL1 Copyright (c) Steve Scherf et al.
# Submitted via: EasyCDDAExtractor 4.5.0.2
#
DISCID=fc0bdf12
DTITLE=Ronny - Es ist nicht alles Gold was glänzt
DYEAR=1900
DGENRE=Country
TTITLE0=Es ist nicht alles Gold was glänzt
TTITLE1=Swanee River
TTITLE2=The green Valleys of Home
TTITLE3=Billy Joe
TTITLE4=Geistreiter
TTITLE5=Kenn ein Land
TTITLE6=Mary, oh Mary
TTITLE7=Ihr Mädchen so schön
TTITLE8=Sweetheart, es war schön
TTITLE9=Vergiss mich mein Liebling
TTITLE10=Anna Maria
TTITLE11=Oh, Susanna
TTITLE12=Adios, My Love
TTITLE13=Old Charly
TTITLE14=Einmal vergeht der schönste Sommer
TTITLE15=Michael bring dein Boot an Land
TTITLE16=Wenn Du einsam bist
TTITLE17=Ganz allein
EXTD=
EXTT0=
EXTT1=
EXTT2=
EXTT3=
EXTT4=
EXTT5=
EXTT6=
EXTT7=
EXTT8=
EXTT9=
EXTT10=
EXTT11=
EXTT12=
EXTT13=
EXTT14=
EXTT15=
EXTT16=
EXTT17=
PLAYORDER=
